PathFileType	4	(X/Y/Z)	51_1_42_p0_0-320.trc
DataRate	CameraRate	NumFrames	NumMarkers	Units	OrigDataRate	OrigDataStartFrame	OrigNumFrames
52.0	52.0	6	27	m	52.0	240	321
Frame#	Time	RHip			RKnee			RAnkle			RBigToe			RSmallToe			RHeel			LHip			LKnee			LAnkle			LBigToe			LSmallToe			LHeel			Neck			Head			Nose			RShoulder			RElbow			RWrist			RThumb			RIndex			RPinky			LShoulder			LElbow			LWrist			LThumb			LIndex			LPinky			
		X1	Y1	Z1	X2	Y2	Z2	X3	Y3	Z3	X4	Y4	Z4	X5	Y5	Z5	X6	Y6	Z6	X7	Y7	Z7	X8	Y8	Z8	X9	Y9	Z9	X10	Y10	Z10	X11	Y11	Z11	X12	Y12	Z12	X13	Y13	Z13	X14	Y14	Z14	X15	Y15	Z15	X16	Y16	Z16	X17	Y17	Z17	X18	Y18	Z18	X19	Y19	Z19	X20	Y20	Z20	X21	Y21	Z21	X22	Y22	Z22	X23	Y23	Z23	X24	Y24	Z24	X25	Y25	Z25	X26	Y26	Z26	X27	Y27	Z27	
240	4.615384615384615	0.11313758247049913	0.47507660897341375	0.5499568044263371	0.10402873873804702	0.6067170917140918	1.0336224489879715	0.06873215802897725	0.6375052645537631	1.4760317630979958	0.049971924370731086	0.5162352365685928	1.5139216891749456	0.10415044588116432	0.5338187325263188	1.521125100216451	0.0364071098384685	0.6909345078005484	1.548564450126313	-0.08497884741142966	0.46141789451444176	0.5511213202269688	-0.12468146309274199	0.5903829743661404	1.0362712179074969	-0.13908530870373098	0.6459548838778115	1.4921711894418845	-0.1072421298141205	0.5014228576546225	1.5145363357388182	-0.16612317123869969	0.5181110353953895	1.5082462533496237	-0.12779761413209118	0.6695074889605634	1.5457473840611087	0.029665740481568812	0.41179223294048484	-0.011601550027819879	0.07393527946217664	0.3397196232874496	-0.22683192071121447	0.07082067299992535	0.2942641285524167	-0.1174263923775024	0.1780704472210705	0.46954216609121224	0.09936510736586616	0.1961588811510497	0.3327274830485413	0.3249744724065379	0.12295578958243994	0.23273461014358535	0.15685033042987842	0.09914546005278355	0.3243374373558323	0.06537905525392376	0.10093439530975336	0.25960460501740956	0.05525571231679232	0.09016315301270394	0.1740637839114391	0.1070926099426859	-0.12803928071236867	0.4341187230783037	0.0896971759621248	-0.17398022110126624	0.4578044166854582	0.36362877910168234	-0.24378432231645153	0.5184604852232111	0.6094497012584178	-0.2420931402354012	0.48641479380655156	0.7075150481761152	-0.2725394836109992	0.4388136095339558	0.7125499257896855	-0.2771948776183385	0.46573995559610476	0.7077445181044257
241	4.634615384615385	0.10993696893289819	0.4627246895917112	0.5477082510092279	0.10325878605496848	0.6070286132724674	1.0377464672052192	0.07367701072632277	0.621017338961308	1.468047275192888	0.04998250628206806	0.5162588824552891	1.513985983176173	0.10711761658118771	0.5460050167628572	1.5271135440008259	0.03642678879576303	0.6907291384097489	1.5484525647600587	-0.08492570768075004	0.46141513760560293	0.5510410728111353	-0.12470150458343475	0.5904132017350654	1.0363284160545285	-0.13326805505282532	0.6301012280955622	1.484493763954222	-0.10722808681226863	0.5009532313499334	1.5143100565662482	-0.16609667094758618	0.5180046941073462	1.5082276894846947	-0.12956195811234755	0.6668485552731763	1.5453731402309931	0.029639787400870476	0.4118658604338739	-0.011527009429073531	0.07395710137966491	0.3398064407809007	-0.22702080980103914	0.06748722591143509	0.2929724404024621	-0.11728500559180657	0.17812836866359563	0.4694888190250979	0.09934954845395175	0.19928571704254652	0.34331367299671667	0.32616137965931963	0.12270793176244116	0.23258457466472068	0.16065797399229953	0.09884869487360656	0.3237605227245594	0.06510376797963346	0.10088553765683406	0.25994698462529203	0.055469923987687055	0.09601859764274794	0.17884846641746857	0.11456038481866301	-0.12821498443978294	0.4338806692102662	0.09280723090052433	-0.17398007729875434	0.45768154677753936	0.36361605836711275	-0.24379675344473326	0.5184951315415876	0.6094344390768949	-0.2421265006335967	0.48667872041435795	0.7075140200367315	-0.2725319328784453	0.43906329011514506	0.7125376996842608	-0.2771996530273346	0.46569317970189983	0.7076882759238668
242	4.653846153846154	0.10989232901321597	0.4626113478090483	0.5476758015611248	0.1033217744291708	0.607065101927716	1.0376703523683453	0.07385312139162864	0.6215872151822832	1.4683183376573377	0.04929626991157952	0.5139149643709856	1.5098496290075705	0.1041845551796411	0.5337188473830137	1.521297409149316	0.03978333875991468	0.7064544618424283	1.555426414702399	-0.08514775593929955	0.4617217368029899	0.5477464009584136	-0.12472328071733363	0.5904614095277222	1.0363741355060716	-0.133252314421926	0.630279792355525	1.484741609945197	-0.10753466362394698	0.5002329985368003	1.5137861262345225	-0.1661392914141829	0.5178994073745273	1.5081585828444566	-0.12881526664201357	0.6692557419970144	1.5505874328439815	0.029682882465584273	0.41302037541373127	-0.0049546650021437995	0.07007211707865212	0.3521213880416264	-0.22798082666361166	0.06741174593362684	0.29285077419333	-0.11730426627438532	0.1781890429039877	0.46954821092210997	0.09934801211248422	0.1992073308899402	0.34323570270039555	0.3263609125538168	0.12214891885384668	0.2313653408382395	0.1609007547734206	0.09557638255994973	0.31333430897346604	0.06496792120207172	0.09868140321959509	0.2586586223960883	0.057143034875512866	0.09533884149697756	0.1772651316426934	0.11151463733101674	-0.1281160838365734	0.43412688383741027	0.09285754544193797	-0.16882385873823313	0.44490565119368075	0.36202701497876455	-0.2437987045777703	0.518446529905442	0.6094518625736927	-0.2421959368872121	0.4867321262880341	0.7074814528372274	-0.2721020377927946	0.43899531629325617	0.7092212200378466	-0.27726873590952206	0.4654805407116999	0.7076495735642605
243	4.673076923076923	0.10992134663497406	0.46265869638630014	0.5476705547965519	0.10329129100943764	0.6070369751342344	1.0375755169453147	0.07378799348011368	0.6213101951720977	1.4681948228339874	0.04928528505288835	0.5142177270276554	1.509821140149847	0.09923869431094846	0.5296721936289104	1.5193553024037283	0.0365011383711017	0.6911990795100686	1.5482666609343845	-0.08517140805331136	0.46178648885331053	0.5477979663645074	-0.124739468979726	0.5903908523986835	1.0362958519112857	-0.1332485076279376	0.6301824046741511	1.4845470094716684	-0.10738454702134126	0.5009381635070745	1.5142406310852685	-0.166176063985865	0.517982229756161	1.5082004297670162	-0.12840250042305532	0.6666868236838126	1.5402533876974103	0.029593719135343893	0.4121148226998135	-0.011531554580051312	0.06573487146620978	0.349920381158544	-0.22764084208705926	0.0673164525832793	0.29297793205753764	-0.1173259464173057	0.17818191983043102	0.4695242638505167	0.09923761293712664	0.19928142448711303	0.343373706507733	0.32643925136596363	0.12215537309259777	0.2315461065683816	0.16395921220354714	0.09579454904871255	0.3126736943196597	0.05945983512416659	0.09527626925323744	0.25735848012123697	0.05742849666583532	0.10646394788624602	0.19889267853559878	0.10901643968836064	-0.12812599910790218	0.43475939737398006	0.09255865148597876	-0.1740677893026061	0.45773019376412966	0.36373165981612476	-0.24377498301743725	0.5183884649500483	0.6095055047447941	-0.24081837012895574	0.500322648101442	0.7105602438515072	-0.27206159862436036	0.4396145340236507	0.7094816433216888	-0.27306779446317153	0.44003670978535514	0.7018318312105507
244	4.6923076923076925	0.10990318237408724	0.4627897675082745	0.5476850057615437	0.10404205501264394	0.6066132856693488	1.033216852151705	0.0740804336021331	0.6197079752258661	1.4722836505675392	0.05012606585559466	0.5163785530757053	1.5147038463241456	0.10223086870515567	0.5415587040462732	1.5255923933348539	0.03631862399842114	0.6899661946303886	1.5488180349468244	-0.08524500444217042	0.46202160531343933	0.5479369381486994	-0.12471630269433816	0.5903796590336822	1.0363231977913507	-0.13325865289111785	0.6301925536990394	1.4845540229286942	-0.10511206411855496	0.5149762548707488	1.521369379891417	-0.1661282514290857	0.5182997546606204	1.5083595445518745	-0.12844633406163905	0.6665923835492621	1.5401817702491871	0.02957847560980448	0.4121630280908652	-0.011550152625474168	0.06309944088200882	0.33921407111318697	-0.22691858919969	0.06378750935265998	0.2914004267925237	-0.12005224343527875	0.18157061180555037	0.4542798793681002	0.0954140082896896	0.19920126091222404	0.342200807343388	0.32652670461966193	0.12564131213288426	0.2324688975697543	0.16742188605129305	0.09543834532109174	0.3124697632133486	0.06243130029264992	0.100531772713757	0.259350303170047	0.05591325674137628	0.09309017512351807	0.1807504102798059	0.10877817567293725	-0.13321741883506774	0.44793470984765293	0.09287633816117091	-0.1781361378784216	0.45526698841593155	0.36370227633209157	-0.23777223516441354	0.5048989885833033	0.6105720506843438	-0.24229316605142334	0.4866538581773268	0.7077557205080439	-0.27285602621319044	0.43879963613828377	0.712792376802774	-0.2786343897491945	0.4514692535043433	0.7085726759891914
245	4.711538461538462	0.10992674610906969	0.46276603433288216	0.5476769651643348	0.10331246578666818	0.6046938763525521	1.0282747164480133	0.07383091631282696	0.6212505567954534	1.4682466547633295	0.05012211235158637	0.5163863341288333	1.5146208799621372	0.09926160147000773	0.5296148717550561	1.5195315125638549	0.039696109508489785	0.7058844188808139	1.5555785379839469	-0.08501927939558113	0.4614508700289587	0.5510718965457573	-0.12474283507087051	0.5902112277645768	1.036308355497136	-0.13909659382401648	0.64562791515922	1.4918414055958336	-0.10518394680465197	0.515440102199184	1.5216047407523714	-0.16615890584765075	0.518404077562842	1.508384199532062	-0.12848535644178016	0.6665655601804459	1.5401232945929866	0.029509937533039408	0.4122126504182111	-0.011601675072537943	0.058768323915520296	0.3509163071739832	-0.22783693433927407	0.06358870759911145	0.2914385665135427	-0.12012474585285932	0.18090500766829465	0.4801777759295137	0.09622890207038702	0.1993507368136305	0.34280156836299	0.3267392497986367	0.12885553256997218	0.24263906550899214	0.1681985468790595	0.09571216533951724	0.3136950586140373	0.06812047855676873	0.10111975696166335	0.2602603623164329	0.06086737781268044	0.09407562533890113	0.18306066793749692	0.1203451996645877	-0.13323263831222354	0.44807178251775426	0.09291764596951667	-0.17819934116149375	0.45509083373588444	0.3636673215543724	-0.23773579228753097	0.5045134565907231	0.6106471981399477	-0.2439531637623034	0.47207669805258234	0.7077270574612691	-0.274347103358192	0.4379082463093958	0.7197032059302677	-0.27303567484411706	0.43945677522810983	0.7056481907607607
